<?xml version="1.0" encoding="UTF-8" standalone="no"?><!DOCTYPE svg PUBLIC "-//W3C//DTD SVG 1.1//EN" "http://www.w3.org/Graphics/SVG/1.1/DTD/svg11.dtd"><svg width="100%" height="100%" viewBox="0 0 508 508" version="1.1" xmlns="http://www.w3.org/2000/svg" xmlns:xlink="http://www.w3.org/1999/xlink" xml:space="preserve" xmlns:serif="http://www.serif.com/" style="fill-rule:evenodd;clip-rule:evenodd;stroke-linejoin:round;stroke-miterlimit:2;"><g><path d="M189.085,472.291l5.212,-30.522c0.436,-2.564 2.507,-4.535 5.09,-4.843l211.406,-30.186c6.322,-0.763 11.321,-5.483 12.449,-11.752l41.749,-228.087c1.165,-6.502 -2.095,-12.975 -8.767,-16.036c-2.038,-0.929 -4.336,-1.171 -6.559,-0.901l-238.569,28.608c-6.34,0.759 -11.373,5.493 -12.529,11.772l-48.767,265.693c-3.464,18.875 -19.286,32.328 -38.469,32.693c-19.178,0.374 -35.517,-12.43 -39.72,-31.143l-68.76,-303.936c-6.25,-27.636 10.463,-55.278 37.844,-62.575l262.443,-69.954c29.257,-7.781 59.699,9.567 67.897,38.692l3.393,12.198c0.99,3.549 -1.417,7.141 -5.075,7.572l-29.442,3.469c-2.872,0.341 -5.564,-1.464 -6.35,-4.246l-2.204,-7.828c-2.123,-7.554 -10.003,-12.056 -17.604,-10.032l-262.443,69.953c-5.976,1.593 -9.625,7.625 -8.26,13.658l67.362,297.751l48.003,-261.505c4.18,-22.76 22.68,-40.147 45.654,-42.9l240.104,-28.797c12.577,-1.507 25.48,1.004 36.095,7.918c19.936,12.98 29.262,35.029 25.291,57.15l-41.753,228.087c-4.346,24.219 -23.67,42.459 -48.094,45.397l-220.32,31.257c-3.791,0.455 -6.952,-2.867 -6.307,-6.625Z" style="fill-rule:nonzero;"/></g></svg>